<svg width="66" height="66" viewBox="0 0 66 66" fill="none" xmlns="http://www.w3.org/2000/svg">
<g clip-path="url(#clip0_418_173)">
<path d="M26.2969 29.3902V19.2139H33.6394C37.653 19.2139 40.0001 21.099 40.0001 24.3165C40.0001 27.6247 37.5086 29.3902 32.7236 29.3902H26.2969ZM26.2969 44.9085H34.1261C39.0101 44.9085 41.5924 42.9285 41.5924 39.2284C41.5924 35.5777 38.9111 33.6679 33.8126 33.6679H26.2969V44.9085V44.9085Z" fill="#5A68B5"/>
<path d="M16.5078 0C12.1317 0 7.9349 1.73839 4.84055 4.83274C1.7462 7.92709 0.0078125 12.1239 0.0078125 16.5V49.5C0.0078125 53.8761 1.7462 58.0729 4.84055 61.1673C7.9349 64.2616 12.1317 66 16.5078 66H49.5078C53.8839 66 58.0807 64.2616 61.1751 61.1673C64.2694 58.0729 66.0078 53.8761 66.0078 49.5V16.5C66.0078 12.1239 64.2694 7.92709 61.1751 4.83274C58.0807 1.73839 53.8839 0 49.5078 0L16.5078 0V0ZM20.8803 49.5V14.6231H34.9012C41.4476 14.6231 45.3911 17.9603 45.3911 23.3269C45.3911 26.9734 42.7098 30.2363 39.2737 30.8179V31.2304C43.9886 31.713 47.1277 35.0708 47.1277 39.6165C47.1277 45.7545 42.6562 49.5 35.2147 49.5H20.8803V49.5Z" fill="#5A68B5"/>
</g>
<defs>
<clipPath id="clip0_418_173">
<rect width="66" height="66" fill="white"/>
</clipPath>
</defs>
</svg>
