<svg version="1.1" xmlns="http://www.w3.org/2000/svg" xmlns:xlink="http://www.w3.org/1999/xlink" viewBox="0 0 226 226"><g fill="none" fill-rule="nonzero" stroke="none" stroke-width="1" stroke-linecap="butt" stroke-linejoin="miter" stroke-miterlimit="10" stroke-dasharray="" stroke-dashoffset="0" font-family="none" font-weight="none" font-size="none" text-anchor="none" style="mix-blend-mode: normal"><path d="M0,226v-226h226v226z" fill="none"></path><g><path d="M118.12031,41.98656l-1.58906,-3.14281l-0.8475,0.8475c-3.97672,3.98553 -9.37765,6.22216 -15.00781,6.215h-1.80094v-7.0625c0,-7.80102 6.32398,-14.125 14.125,-14.125c7.80102,0 14.125,6.32398 14.125,14.125v7.0625h-2.68375c-2.68264,0.00778 -5.13541,-1.51322 -6.32094,-3.91969z"  ></path><path d="M105.9375,70.625l7.0625,7.0625l-10.59375,7.0625l-4.55531,-10.09937z"  ></path><path d="M157.67031,45.90625c-4.6394,-19.61441 -21.53038,-33.90834 -41.642,-35.23939c-20.11162,-1.33105 -38.73906,10.61216 -45.92296,29.44407c-7.1839,18.83191 -1.24368,40.14706 14.64465,52.54908v-2.71906c0.01261,-5.3475 3.02925,-10.23418 7.80406,-12.64187l5.29688,-2.64844l8.08656,-4.02563v-8.96937c-4.37651,-2.50988 -7.07196,-7.173 -7.0625,-12.21812v-10.59375c0,-7.80102 6.32398,-14.125 14.125,-14.125c7.80102,0 14.125,6.32398 14.125,14.125v10.59375c0.00946,5.04512 -2.68599,9.70824 -7.0625,12.21813v8.96938l8.08656,4.02563l5.29688,2.64844c4.77482,2.4077 7.79146,7.29438 7.80406,12.64187v2.71906c14.14083,-11.03584 20.55513,-29.29935 16.42031,-46.75375z"  ></path><path d="M128.14906,74.65063l-4.55531,10.09937l-10.59375,-7.0625l7.0625,-7.0625z"  ></path><path d="M133.44594,77.29906l-5.29687,-2.64844l-4.55531,10.09937l-10.59375,-7.0625l-10.59375,7.0625l-4.55531,-10.09937l-5.29687,2.64844c-4.77482,2.4077 -7.79146,7.29438 -7.80406,12.64187v2.71906c1.22551,0.95787 2.49837,1.85359 3.81375,2.68375c14.93014,9.41632 33.94236,9.41632 48.8725,0c1.31538,-0.83016 2.58824,-1.72588 3.81375,-2.68375v-2.71906c-0.01261,-5.3475 -3.02925,-10.23418 -7.80406,-12.64187z"  ></path><path d="M215.40625,67.09375v127.125c-0.01163,3.89568 -3.16682,7.05087 -7.0625,7.0625h-28.25v-141.25h28.25c3.89568,0.01163 7.05087,3.16682 7.0625,7.0625z"  ></path><path d="M92.80125,172.0425c3.70741,5.34419 3.28615,12.5292 -1.02037,17.40353c-4.30653,4.87433 -11.38488,6.17772 -17.14517,3.15708c-5.76029,-3.02064 -8.71322,-9.58434 -7.15257,-15.89858c1.56065,-6.31424 7.23137,-10.74649 13.73561,-10.73578c4.62069,0.01302 8.94425,2.28025 11.5825,6.07375z"  ></path><path d="M92.80125,129.6675c3.70741,5.34419 3.28615,12.5292 -1.02037,17.40353c-4.30653,4.87433 -11.38488,6.17772 -17.14517,3.15708c-5.76029,-3.02064 -8.71322,-9.58434 -7.15257,-15.89858c1.56065,-6.31424 7.23137,-10.74649 13.73561,-10.73578c4.62069,0.01302 8.94425,2.28025 11.5825,6.07375z"  ></path><path d="M10.59375,194.21875v-127.125c0.01163,-3.89568 3.16682,-7.05087 7.0625,-7.0625h28.25v141.25h-28.25c-3.89568,-0.01163 -7.05087,-3.16682 -7.0625,-7.0625z"  ></path><path d="M113,7.0625c-27.30358,0 -49.4375,22.13392 -49.4375,49.4375c0,27.30358 22.13392,49.4375 49.4375,49.4375c27.30358,0 49.4375,-22.13392 49.4375,-49.4375c-0.02919,-27.29148 -22.14602,-49.40831 -49.4375,-49.4375zM137.71875,90.85906c-14.74621,10.68786 -34.69129,10.68786 -49.4375,0v-0.91813c0.02796,-4.01223 2.2882,-7.6749 5.86187,-9.49906l2.01281,-0.98875l3.03687,6.74469c0.41628,0.94569 1.23146,1.65736 2.22469,1.94219c0.32008,0.0989 0.65378,0.14657 0.98875,0.14125c0.69333,0.00171 1.37075,-0.20768 1.94219,-0.60031l8.65156,-5.75594l8.65156,5.75594c0.57144,0.39264 1.24886,0.60202 1.94219,0.60031c0.33497,0.00532 0.66867,-0.04235 0.98875,-0.14125c0.99323,-0.28483 1.80841,-0.99649 2.22469,-1.94219l3.03687,-6.74469l2.01281,0.98875c3.57368,1.82417 5.83391,5.48684 5.86187,9.49906zM115.47188,44.52906c1.79287,2.79787 4.80633,4.57974 8.12187,4.8025v0.10594c0,5.85077 -4.74298,10.59375 -10.59375,10.59375c-5.85077,0 -10.59375,-4.74298 -10.59375,-10.59375v-0.14125c4.72503,-0.28995 9.26412,-1.9461 13.06563,-4.76719zM102.40625,42.19844v-3.35469c0,-5.85077 4.74298,-10.59375 10.59375,-10.59375c5.85077,0 10.59375,4.74298 10.59375,10.59375v3.42531c-1.01141,-0.23479 -1.86569,-0.90786 -2.33062,-1.83625l-1.58906,-3.17813c-0.50452,-1.01159 -1.46286,-1.72049 -2.57781,-1.90687c-1.12309,-0.17852 -2.26405,0.18868 -3.07219,0.98875l-0.8475,0.88281c-2.90469,2.85756 -6.71172,4.61753 -10.77031,4.97906zM123.52313,76.31031l-1.44781,3.17812l-3.53125,-2.36594l2.22469,-2.18937zM116.53125,66.74062v2.43656l-3.53125,3.53125l-3.53125,-3.53125v-2.43656c2.33062,0.47083 4.73188,0.47083 7.0625,0zM107.45594,77.1225l-3.53125,2.36594l-1.44781,-3.17812l2.75438,-1.37719zM144.11031,85.17375c-1.36121,-4.77481 -4.64961,-8.76696 -9.07531,-11.0175l-11.44125,-5.72062v-4.97906c4.43719,-3.29446 7.05588,-8.49257 7.0625,-14.01906v-10.59375c0,-9.75128 -7.90497,-17.65625 -17.65625,-17.65625c-9.75128,0 -17.65625,7.90497 -17.65625,17.65625v10.59375c0.00662,5.52649 2.62531,10.7246 7.0625,14.01906v4.97906l-11.44125,5.72062c-4.4257,2.25054 -7.7141,6.24269 -9.07531,11.0175c-15.59831,-16.86639 -14.91563,-43.0904 1.53912,-59.12236c16.45475,-16.03196 42.68764,-16.03196 59.14239,0c16.45475,16.03196 17.13743,42.25597 1.53912,59.12236z" fill="#000000"></path><path d="M173.03125,42.375h-3.53125v7.0625h3.53125c1.95026,0 3.53125,1.58099 3.53125,3.53125v155.375c0,1.95026 -1.58099,3.53125 -3.53125,3.53125h-120.0625c-1.95026,0 -3.53125,-1.58099 -3.53125,-3.53125v-155.375c0,-1.95026 1.58099,-3.53125 3.53125,-3.53125h3.53125v-7.0625h-3.53125c-5.85077,0 -10.59375,4.74298 -10.59375,10.59375v155.375c0,5.85077 4.74298,10.59375 10.59375,10.59375h120.0625c5.85077,0 10.59375,-4.74298 10.59375,-10.59375v-155.375c0,-5.85077 -4.74298,-10.59375 -10.59375,-10.59375z" fill="#000000"></path><path d="M208.34375,56.5h-17.65625v7.0625h17.65625c1.95026,0 3.53125,1.58099 3.53125,3.53125v127.125c0,1.95026 -1.58099,3.53125 -3.53125,3.53125h-17.65625v7.0625h17.65625c5.85077,0 10.59375,-4.74298 10.59375,-10.59375v-127.125c0,-5.85077 -4.74298,-10.59375 -10.59375,-10.59375z" fill="#000000"></path><path d="M7.0625,67.09375v127.125c0,5.85077 4.74298,10.59375 10.59375,10.59375h17.65625v-7.0625h-17.65625c-1.95026,0 -3.53125,-1.58099 -3.53125,-3.53125v-127.125c0,-1.95026 1.58099,-3.53125 3.53125,-3.53125h17.65625v-7.0625h-17.65625c-5.85077,0 -10.59375,4.74298 -10.59375,10.59375z" fill="#000000"></path><rect x="6" y="24" transform="scale(3.53125,3.53125)" width="4" height="2" fill="#000000"></rect><rect x="6" y="28" transform="scale(3.53125,3.53125)" width="4" height="2" fill="#000000"></rect><rect x="6" y="32" transform="scale(3.53125,3.53125)" width="4" height="2" fill="#000000"></rect><rect x="6" y="36" transform="scale(3.53125,3.53125)" width="4" height="2" fill="#000000"></rect><rect x="6" y="40" transform="scale(3.53125,3.53125)" width="4" height="2" fill="#000000"></rect><rect x="6" y="44" transform="scale(3.53125,3.53125)" width="4" height="2" fill="#000000"></rect><rect x="6" y="48" transform="scale(3.53125,3.53125)" width="4" height="2" fill="#000000"></rect><rect x="54" y="24" transform="scale(3.53125,3.53125)" width="4" height="2" fill="#000000"></rect><rect x="54" y="28" transform="scale(3.53125,3.53125)" width="4" height="2" fill="#000000"></rect><rect x="54" y="32" transform="scale(3.53125,3.53125)" width="4" height="2" fill="#000000"></rect><rect x="54" y="36" transform="scale(3.53125,3.53125)" width="4" height="2" fill="#000000"></rect><rect x="54" y="40" transform="scale(3.53125,3.53125)" width="4" height="2" fill="#000000"></rect><rect x="54" y="44" transform="scale(3.53125,3.53125)" width="4" height="2" fill="#000000"></rect><rect x="54" y="48" transform="scale(3.53125,3.53125)" width="4" height="2" fill="#000000"></rect><path d="M81.21875,155.375c9.74644,-0.01167 17.64458,-7.90981 17.65625,-17.65625c-0.01371,-2.56673 -0.59368,-5.09881 -1.69853,-7.41563l4.19512,-4.19513l-4.99319,-4.99319l-3.48181,3.48181c-5.86536,-5.23044 -14.48502,-5.94555 -21.13213,-1.75317c-6.6471,4.19238 -9.71536,12.27914 -7.5222,19.82566c2.19316,7.54653 9.11776,12.72917 16.97648,12.70589zM81.21875,127.125c2.44604,0.01024 4.81169,0.87456 6.68819,2.44362l-9.18125,9.18125l4.99319,4.99319l7.90647,-7.90647c0.79226,4.38832 -1.24833,8.80294 -5.10431,11.04268c-3.85598,2.23974 -8.70168,1.82503 -12.121,-1.03736c-3.41932,-2.86239 -4.68009,-7.55955 -3.15369,-11.74943c1.52641,-4.18988 5.51315,-6.97533 9.97241,-6.96749z" fill="#000000"></path><rect x="37" y="36" transform="scale(3.53125,3.53125)" width="8" height="2" fill="#000000"></rect><rect x="33" y="40" transform="scale(3.53125,3.53125)" width="12" height="2" fill="#000000"></rect><path d="M81.21875,197.75c9.74644,-0.01167 17.64458,-7.90981 17.65625,-17.65625c-0.01371,-2.56673 -0.59368,-5.09881 -1.69853,-7.41563l4.19512,-4.19513l-4.99319,-4.99319l-3.48181,3.48181c-5.86536,-5.23044 -14.48502,-5.94555 -21.13213,-1.75317c-6.6471,4.19238 -9.71536,12.27914 -7.5222,19.82566c2.19316,7.54653 9.11776,12.72917 16.97648,12.70589zM81.21875,169.5c2.44604,0.01024 4.81169,0.87456 6.68819,2.44362l-9.18125,9.18125l4.99319,4.99319l7.90647,-7.90647c0.79226,4.38832 -1.24833,8.80294 -5.10431,11.04268c-3.85598,2.23974 -8.70168,1.82503 -12.121,-1.03736c-3.41932,-2.86239 -4.68009,-7.55955 -3.15369,-11.74943c1.52641,-4.18988 5.51315,-6.97533 9.97241,-6.96749z" fill="#000000"></path><rect x="33" y="48" transform="scale(3.53125,3.53125)" width="12" height="2" fill="#000000"></rect><rect x="33" y="52" transform="scale(3.53125,3.53125)" width="12" height="2" fill="#000000"></rect><rect x="33" y="36" transform="scale(3.53125,3.53125)" width="2" height="2" fill="#000000"></rect></g></g></svg>