<svg width="75" height="66" viewBox="0 0 75 66" fill="none" xmlns="http://www.w3.org/2000/svg">
<g clip-path="url(#clip0_418_176)">
<path fill-rule="evenodd" clip-rule="evenodd" d="M74.112 33.009C74.112 28.0996 67.9662 23.4495 58.5393 20.5605C60.7166 10.9528 59.7456 3.31116 55.4875 0.862469C54.5044 0.2895 53.3585 0.0180938 52.104 0.0180938V3.38956C52.7976 3.38956 53.3585 3.52828 53.8289 3.7816C55.8856 4.95769 56.7722 9.44494 56.0786 15.2169C55.9097 16.6342 55.6383 18.1299 55.3066 19.6559C52.3452 18.9321 49.1125 18.3712 45.7169 18.0093C43.6783 15.2169 41.5614 12.6777 39.4323 10.4582C44.3538 5.87444 48.9738 3.37147 52.1161 3.37147V0C47.9605 0 42.5264 2.96135 37.0259 8.09997C31.5254 2.9915 26.0912 0.0603125 21.9357 0.0603125V3.43178C25.0599 3.43178 29.6979 5.92269 34.6254 10.4703C32.5085 12.6898 30.3975 15.2108 28.3891 18.0093C24.9754 18.3712 21.7427 18.9321 18.7813 19.6679C18.4315 18.1601 18.1782 16.6945 17.9973 15.2892C17.2856 9.51732 18.1661 5.03006 20.2047 3.83588C20.657 3.56447 21.2481 3.44385 21.9417 3.44385V0.0784063C20.6751 0.0784063 19.5232 0.349813 18.528 0.922782C14.282 3.37147 13.3291 11.001 15.5244 20.5786C6.11569 23.4736 0 28.1117 0 33.009C0 37.9185 6.14585 42.5686 15.5727 45.4576C13.3954 55.0653 14.3664 62.7069 18.6245 65.1556C19.6076 65.7286 20.7535 66 22.0261 66C26.1817 66 31.6158 63.0387 37.1163 57.9C42.6168 63.0085 48.051 65.9397 52.2065 65.9397C53.4731 65.9397 54.6251 65.6683 55.6202 65.0953C59.8662 62.6466 60.8192 55.0171 58.6238 45.4395C67.9963 42.5565 74.112 37.9004 74.112 33.009ZM43.9437 33.009C43.9437 29.1973 40.8557 26.1033 37.0379 26.1033C33.2262 26.1033 30.1321 29.1913 30.1321 33.009C30.1321 36.8268 33.2201 39.9148 37.0379 39.9148C40.8557 39.9088 43.9437 36.8208 43.9437 33.009ZM54.4441 22.9308C53.8832 24.8789 53.1896 26.8873 52.4056 28.8957C51.7843 27.6895 51.139 26.4772 50.4273 25.2709C49.7337 24.0647 48.9919 22.8826 48.25 21.7366C50.3971 22.0563 52.4659 22.4483 54.4441 22.9308ZM47.5263 39.0222C46.3502 41.0608 45.1379 42.9968 43.8834 44.7941C41.6337 44.9931 39.3539 45.0957 37.056 45.0957C34.7762 45.0957 32.4964 44.9871 30.2588 44.8062C29.0043 43.0089 27.78 41.0909 26.6039 39.0644C25.4579 37.0862 24.4145 35.0778 23.4616 33.0513C24.3964 31.0248 25.4579 29.0043 26.5858 27.026C27.7619 24.9875 28.9741 23.0514 30.2286 21.2541C32.4783 21.0551 34.7581 20.9526 37.056 20.9526C39.3358 20.9526 41.6156 21.0611 43.8532 21.2421C45.1077 23.0394 46.3321 24.9573 47.5082 26.9838C48.6541 28.9621 49.6975 30.9705 50.6505 32.997C49.6975 35.0175 48.6601 37.0379 47.5263 39.0222ZM52.4056 37.056C53.2198 39.0825 53.9134 41.103 54.4924 43.0692C52.5141 43.5517 50.4273 43.9618 48.2681 44.2754C49.01 43.1114 49.7458 41.9172 50.4454 40.6929C51.133 39.4866 51.7843 38.2623 52.4056 37.056ZM37.0862 53.1715C35.6809 51.724 34.2756 50.1076 32.8884 48.3405C34.2455 48.4008 35.6387 48.4491 37.044 48.4491C38.4613 48.4491 39.8666 48.4189 41.2417 48.3405C39.8786 50.1076 38.4734 51.724 37.0862 53.1715ZM25.8499 44.2754C23.7028 43.9558 21.6341 43.5637 19.6559 43.0812C20.2168 41.1331 20.9104 39.1247 21.6944 37.1163C22.3156 38.3226 22.961 39.5349 23.6727 40.7411C24.3844 41.9534 25.1081 43.1295 25.8499 44.2754ZM37.0078 12.8405C38.413 14.288 39.8183 15.9044 41.2055 17.6716C39.8485 17.6113 38.4553 17.563 37.05 17.563C35.6326 17.563 34.2274 17.5932 32.8522 17.6716C34.2153 15.9044 35.6206 14.288 37.0078 12.8405ZM25.8319 21.7366C25.09 22.9007 24.3542 24.0949 23.6546 25.3192C22.961 26.5254 22.3096 27.7377 21.6884 28.944C20.8742 26.9175 20.1806 24.897 19.6016 22.9308C21.5859 22.4604 23.6727 22.0563 25.8319 21.7366ZM12.159 40.6506C6.80928 38.3708 3.35338 35.3793 3.35338 33.009C3.35338 30.6388 6.81532 27.6292 12.159 25.3674C13.4557 24.8065 14.8791 24.312 16.3447 23.8415C17.2072 26.8029 18.341 29.8849 19.7463 33.0392C18.3591 36.1815 17.2373 39.2454 16.3929 42.1946C14.8972 41.7242 13.4738 41.2116 12.159 40.6506ZM20.2891 62.2365C18.2325 61.0604 17.3459 56.5732 18.0395 50.8012C18.2084 49.3839 18.4798 47.8881 18.8115 46.3622C21.7728 47.086 25.0056 47.6469 28.4012 48.0088C30.4397 50.8012 32.5567 53.3404 34.6857 55.5599C29.7582 60.1376 25.1383 62.6466 21.996 62.6466C21.3144 62.6285 20.7415 62.4958 20.2891 62.2365ZM56.1208 50.7289C56.8325 56.5008 55.9519 60.988 53.9134 62.1822C53.461 62.4536 52.87 62.5742 52.1764 62.5742C49.0522 62.5742 44.4141 60.0833 39.4866 55.5358C41.6036 53.3163 43.7145 50.7952 45.7229 47.9967C49.1366 47.6348 52.3694 47.0739 55.3307 46.3321C55.6805 47.858 55.9519 49.3236 56.1208 50.7289ZM61.9349 40.6506C60.6382 41.2116 59.2148 41.7061 57.7492 42.1766C56.8868 39.2152 55.7529 36.1332 54.3476 32.9789C55.7348 29.8366 56.8566 26.7727 57.701 23.8234C59.1967 24.2939 60.6141 24.8065 61.947 25.3614C67.2967 27.6412 70.7526 30.6327 70.7526 33.003C70.7406 35.3793 67.2847 38.3829 61.9349 40.6506Z" fill="#5A68B5"/>
</g>
<defs>
<clipPath id="clip0_418_176">
<rect width="74.112" height="66" fill="white"/>
</clipPath>
</defs>
</svg>
