<svg width="62" height="66" viewBox="0 0 62 66" fill="none" xmlns="http://www.w3.org/2000/svg">
<g clip-path="url(#clip0_418_182)">
<path fill-rule="evenodd" clip-rule="evenodd" d="M52.1523 43.2714C52.4137 43.1213 52.631 42.9051 52.7824 42.6444C52.9339 42.3838 53.0141 42.0879 53.0151 41.7864L53.046 31.84C53.047 31.5386 53.1272 31.2427 53.2786 30.982C53.4301 30.7214 53.6474 30.5051 53.9088 30.355L59.3005 27.2578C59.5619 27.1078 59.858 27.029 60.1594 27.0295C60.4607 27.03 60.7566 27.1098 61.0174 27.2607C61.2783 27.4117 61.4948 27.6285 61.6453 27.8896C61.7959 28.1506 61.8752 28.4466 61.8752 28.748V46.831C61.8752 47.1333 61.7954 47.4302 61.6439 47.6919C61.4924 47.9535 61.2746 48.1705 61.0124 48.3211L40.6641 60.0086C40.4042 60.1578 40.1098 60.2365 39.8101 60.2368C39.5105 60.2371 39.2159 60.159 38.9557 60.0103L22.9868 50.8769C22.7237 50.7266 22.5051 50.5095 22.3529 50.2475C22.2008 49.9855 22.1206 49.688 22.1205 49.385V40.267C22.1205 40.2567 22.1326 40.2499 22.1429 40.255C22.1515 40.2602 22.1635 40.255 22.1635 40.243V40.2327C22.1635 40.2258 22.167 40.2189 22.1738 40.2155L35.3257 32.6599C35.3377 32.653 35.3326 32.6341 35.3188 32.6341C35.3152 32.6341 35.3117 32.6326 35.3091 32.63C35.3065 32.6275 35.3051 32.624 35.3051 32.6203L35.3309 23.6811C35.3321 23.3788 35.2535 23.0816 35.1032 22.8193C34.9528 22.5571 34.7359 22.3392 34.4744 22.1875C34.213 22.0358 33.9161 21.9558 33.6138 21.9555C33.3115 21.9552 33.0145 22.0346 32.7527 22.1858L22.9782 27.8181C22.7173 27.9683 22.4216 28.0474 22.1205 28.0474C21.8195 28.0474 21.5238 27.9683 21.2629 27.8181L11.4574 22.172C11.1962 22.0216 10.9 21.9425 10.5985 21.9428C10.2971 21.943 10.001 22.0225 9.73998 22.1733C9.47896 22.3241 9.26219 22.5409 9.11143 22.8019C8.96066 23.0629 8.8812 23.359 8.88102 23.6605V39.8167C8.88122 40.1179 8.80231 40.4138 8.65217 40.6748C8.50204 40.9358 8.28596 41.1528 8.02558 41.3041C7.76519 41.4554 7.46963 41.5355 7.16851 41.5366C6.86738 41.5377 6.57125 41.4597 6.30977 41.3103L0.868205 38.1994C0.604637 38.0488 0.38564 37.8312 0.233486 37.5685C0.0813313 37.3059 0.00144661 37.0076 0.00195554 36.7041L0.0500805 8.46501C0.0507355 8.16396 0.130453 7.86836 0.281253 7.6078C0.432054 7.34725 0.648647 7.13087 0.909355 6.98032C1.17006 6.82978 1.46574 6.75036 1.76679 6.75C2.06784 6.74964 2.3637 6.82837 2.62477 6.97829L21.2646 17.6844C21.5251 17.834 21.8202 17.9127 22.1205 17.9127C22.4209 17.9127 22.716 17.834 22.9765 17.6844L41.6112 6.97829C41.8726 6.82815 42.1689 6.74942 42.4704 6.75001C42.7719 6.75059 43.068 6.83047 43.3288 6.98162C43.5897 7.13277 43.8062 7.34988 43.9566 7.61116C44.107 7.87243 44.1861 8.16868 44.1859 8.47017V36.7161C44.186 37.0183 44.1064 37.3151 43.9553 37.5767C43.8041 37.8383 43.5866 38.0555 43.3248 38.2063L33.5657 43.8266C33.3036 43.9777 33.086 44.1953 32.9349 44.4575C32.7838 44.7196 32.7047 45.017 32.7054 45.3196C32.7061 45.6221 32.7866 45.9192 32.9389 46.1806C33.0912 46.4421 33.3098 46.6587 33.5726 46.8086L38.9557 49.8731C39.2158 50.0212 39.5102 50.0988 39.8095 50.0982C40.1089 50.0976 40.4029 50.0189 40.6624 49.8697L52.1523 43.2714V43.2714ZM53.2815 17.9336C53.2817 18.2376 53.3626 18.536 53.5158 18.7985C53.669 19.0611 53.889 19.2783 54.1536 19.428C54.4181 19.5777 54.7176 19.6546 55.0215 19.6509C55.3254 19.6471 55.6229 19.5628 55.8837 19.4066L61.0399 16.3128C61.2945 16.1603 61.5052 15.9445 61.6516 15.6863C61.7979 15.4282 61.875 15.1366 61.8752 14.8399V8.53548C61.8747 8.23167 61.7936 7.93343 61.6403 7.67115C61.487 7.40887 61.2669 7.19191 61.0024 7.04239C60.7379 6.89286 60.4386 6.8161 60.1348 6.81994C59.831 6.82378 59.5336 6.90807 59.273 7.06423L54.1168 10.158C53.8623 10.3105 53.6515 10.5263 53.5052 10.7845C53.3588 11.0426 53.2817 11.3342 53.2815 11.6309V17.9353V17.9336Z" fill="#5A68B5"/>
</g>
<defs>
<clipPath id="clip0_418_182">
<rect width="61.875" height="66" fill="white"/>
</clipPath>
</defs>
</svg>
