<svg width="69" height="69" viewBox="0 0 69 69" fill="none" xmlns="http://www.w3.org/2000/svg">
<path d="M55.0028 15.3537C57.0432 15.8284 58.8973 16.8968 60.3311 18.4242C61.1209 19.2508 61.8068 20.1708 62.3733 21.1638C62.3997 21.2717 58.6965 23.7597 56.4506 25.1475C56.3691 25.2026 56.0455 24.8503 55.6788 24.3086C55.2685 23.6033 54.6861 23.0136 53.9861 22.5944C53.2861 22.1753 52.4913 21.9404 51.6759 21.9117C49.0945 21.7343 47.431 23.0861 47.443 25.3464C47.4207 25.9017 47.5473 26.4529 47.8097 26.9428C48.3778 28.1172 49.4324 28.8219 52.7449 30.2577C58.8427 32.8823 61.4601 34.6128 63.0756 37.0721C63.9888 38.6259 64.5512 40.3606 64.7234 42.1546C64.8956 43.9487 64.6736 45.7587 64.0727 47.4578C63.2469 49.3213 61.9374 50.9297 60.2801 52.1162C58.6229 53.3027 56.6782 54.0239 54.6481 54.2051C52.4901 54.4527 50.3097 54.4301 48.1573 54.138C44.8603 53.5963 41.8232 52.0139 39.4901 49.6223C38.6085 48.6296 37.8622 47.5246 37.2705 46.3361C37.5193 46.151 37.7813 45.9844 38.0543 45.8375C38.433 45.6218 39.8664 44.7973 41.2182 44.0135L43.6727 42.5754L44.1856 43.3232C45.0495 44.5587 46.1492 45.6111 47.4214 46.42C48.7062 47.1247 50.1616 47.4587 51.6251 47.3846C53.0886 47.3105 54.5028 46.8314 55.7099 46.0005C56.3326 45.3936 56.7218 44.587 56.8095 43.7219C56.8971 42.8568 56.6776 41.9885 56.1893 41.269C55.5277 40.3223 54.1759 39.5265 50.3337 37.8606C47.3209 36.8448 44.5767 35.1609 42.3064 32.935C41.2252 31.7029 40.4268 30.2491 39.9671 28.6757C39.6271 26.8833 39.5769 25.0479 39.8184 23.2395C40.2695 21.1586 41.3494 19.2667 42.9117 17.8201C44.4741 16.3735 46.4434 15.4422 48.5528 15.1524C50.7007 14.8957 52.8751 14.9636 55.0028 15.3537ZM35.0055 18.9083L35.0318 22.3934H23.9342V53.9079H16.1083V22.4006H5.01062V18.9778C4.98111 17.8057 5.01311 16.6328 5.1065 15.464C5.14725 15.4089 11.8945 15.3825 20.0752 15.3969L34.9623 15.4376L35.0055 18.9083Z" fill="#5A68B5"/>
</svg>
